<?xml version="1.0" standalone="no"?>
<!DOCTYPE svg PUBLIC "-//W3C//DTD SVG 20010904//EN"
 "http://www.w3.org/TR/2001/REC-SVG-20010904/DTD/svg10.dtd">
<svg version="1.0" xmlns="http://www.w3.org/2000/svg"
 width="817.000000pt" height="162.000000pt" viewBox="0 0 817.000000 162.000000"
 preserveAspectRatio="xMidYMid meet">

<g transform="translate(0.000000,162.000000) scale(0.100000,-0.100000)"
fill="#000000" stroke="none">
<path d="M0 760 l0 -670 380 0 380 0 0 95 0 94 98 3 97 3 3 283 2 282 -100 0
-100 0 0 100 0 100 100 0 101 0 -3 93 -3 92 -97 3 -98 3 0 94 0 95 -380 0
-380 0 0 -670z m760 385 l0 -95 -285 0 -285 0 0 95 0 95 285 0 285 0 0 -95z
m0 -580 l0 -285 -285 0 -285 0 0 285 0 285 285 0 285 0 0 -285z"/>
<path d="M7090 1335 l0 -95 95 0 95 0 0 -480 0 -480 95 0 95 0 0 -95 0 -95
195 0 195 0 0 95 0 95 -195 0 -195 0 0 575 0 575 -190 0 -190 0 0 -95z"/>
<path d="M1150 570 l0 -480 95 0 95 0 0 285 0 285 95 0 95 0 0 95 0 95 190 0
189 0 3 -92 3 -93 95 0 95 0 3 93 3 92 -101 0 -100 0 0 100 0 100 -187 -2
-188 -3 -3 -97 -3 -98 -94 0 -95 0 0 100 0 100 -95 0 -95 0 0 -480z"/>
<path d="M2497 1043 c-4 -3 -7 -48 -7 -100 l0 -93 -95 0 -95 0 0 -285 0 -285
95 0 95 0 0 -95 0 -95 285 0 285 0 0 95 0 94 98 3 97 3 3 283 2 282 -100 0
-100 0 0 100 0 100 -278 0 c-153 0 -282 -3 -285 -7z m563 -478 l0 -285 -285 0
-285 0 0 285 0 285 285 0 285 0 0 -285z"/>
<path d="M3450 665 l0 -385 95 0 95 0 0 -95 0 -95 385 0 385 0 -2 478 -3 477
-95 0 -95 0 -3 -382 -2 -383 -95 0 -95 0 0 190 0 190 -95 0 -95 0 0 -190 0
-190 -95 0 -95 0 0 385 0 385 -95 0 -95 0 0 -385z"/>
<path d="M4797 1043 c-4 -3 -7 -48 -7 -100 l0 -93 -95 0 -95 0 0 -95 0 -95 95
0 95 0 0 -95 0 -95 285 0 285 0 0 -95 0 -95 -380 0 -380 0 0 -95 0 -95 380 0
380 0 0 95 0 94 98 3 97 3 3 93 3 92 -101 0 -100 0 0 95 0 95 -285 0 -285 0 0
95 0 95 383 2 382 3 0 95 0 95 -376 3 c-206 1 -378 -1 -382 -5z"/>
<path d="M5947 1043 c-4 -3 -7 -48 -7 -100 l0 -93 -95 0 -95 0 0 -285 0 -285
95 0 95 0 0 -95 0 -95 385 0 385 0 0 95 0 95 -385 0 -385 0 0 95 0 95 383 2
382 3 3 188 2 187 -100 0 -100 0 0 100 0 100 -278 0 c-153 0 -282 -3 -285 -7z
m563 -288 l0 -95 -285 0 -285 0 0 95 0 95 285 0 285 0 0 -95z"/>
</g>
</svg>
